<mxfile host="Electron" modified="2023-10-01T19:28:59.572Z" agent="Mozilla/5.0 (Windows NT 10.0; Win64; x64) AppleWebKit/537.36 (KHTML, like Gecko) draw.io/22.0.0 Chrome/114.0.5735.289 Electron/25.8.3 Safari/537.36" etag="5WutDJ6Qe7bXjMU0yNZ3" version="22.0.0" type="device">
  <diagram name="Page-1" id="PVb0PvvFzybzf4PNu3Vb">
    <mxGraphModel dx="1595" dy="1097" grid="0" gridSize="10" guides="1" tooltips="1" connect="1" arrows="1" fold="1" page="0" pageScale="1" pageWidth="850" pageHeight="1100" math="0" shadow="0">
      <root>
        <mxCell id="0" />
        <mxCell id="1" parent="0" />
        <mxCell id="J7IaDJcgwQDKAqj7KhIV-2" value="Region" style="points=[[0,0],[0.25,0],[0.5,0],[0.75,0],[1,0],[1,0.25],[1,0.5],[1,0.75],[1,1],[0.75,1],[0.5,1],[0.25,1],[0,1],[0,0.75],[0,0.5],[0,0.25]];outlineConnect=0;gradientColor=none;html=1;whiteSpace=wrap;fontSize=12;fontStyle=0;container=1;pointerEvents=0;collapsible=0;recursiveResize=0;shape=mxgraph.aws4.group;grIcon=mxgraph.aws4.group_region;strokeColor=#147EBA;fillColor=none;verticalAlign=top;align=left;spacingLeft=30;fontColor=#147EBA;dashed=1;" vertex="1" parent="1">
          <mxGeometry x="-100" y="-10" width="660" height="450" as="geometry" />
        </mxCell>
        <mxCell id="J7IaDJcgwQDKAqj7KhIV-3" value="Security group" style="fillColor=none;strokeColor=#DD3522;verticalAlign=top;fontStyle=0;fontColor=#DD3522;whiteSpace=wrap;html=1;" vertex="1" parent="J7IaDJcgwQDKAqj7KhIV-2">
          <mxGeometry x="80" y="145" width="160" height="170" as="geometry" />
        </mxCell>
        <mxCell id="J7IaDJcgwQDKAqj7KhIV-20" value="10.80.0.22" style="edgeStyle=orthogonalEdgeStyle;rounded=0;orthogonalLoop=1;jettySize=auto;html=1;endArrow=none;endFill=0;strokeWidth=2;labelPosition=center;verticalLabelPosition=top;align=center;verticalAlign=bottom;fontSize=12;" edge="1" parent="J7IaDJcgwQDKAqj7KhIV-2" source="J7IaDJcgwQDKAqj7KhIV-3" target="J7IaDJcgwQDKAqj7KhIV-16">
          <mxGeometry relative="1" as="geometry">
            <mxPoint x="-138" y="191" as="sourcePoint" />
            <mxPoint x="140" y="191" as="targetPoint" />
          </mxGeometry>
        </mxCell>
        <mxCell id="J7IaDJcgwQDKAqj7KhIV-16" value="VPC" style="points=[[0,0],[0.25,0],[0.5,0],[0.75,0],[1,0],[1,0.25],[1,0.5],[1,0.75],[1,1],[0.75,1],[0.5,1],[0.25,1],[0,1],[0,0.75],[0,0.5],[0,0.25]];outlineConnect=0;gradientColor=none;html=1;whiteSpace=wrap;fontSize=12;fontStyle=0;container=1;pointerEvents=0;collapsible=0;recursiveResize=0;shape=mxgraph.aws4.group;grIcon=mxgraph.aws4.group_vpc;strokeColor=#248814;fillColor=none;verticalAlign=top;align=left;spacingLeft=30;fontColor=#AAB7B8;dashed=0;" vertex="1" parent="J7IaDJcgwQDKAqj7KhIV-2">
          <mxGeometry x="330" y="30" width="310" height="400" as="geometry" />
        </mxCell>
        <mxCell id="J7IaDJcgwQDKAqj7KhIV-21" value="Availability Zone A" style="fillColor=none;strokeColor=#147EBA;dashed=1;verticalAlign=top;fontStyle=0;fontColor=#147EBA;whiteSpace=wrap;html=1;" vertex="1" parent="J7IaDJcgwQDKAqj7KhIV-16">
          <mxGeometry x="20" y="30" width="270" height="170" as="geometry" />
        </mxCell>
        <mxCell id="J7IaDJcgwQDKAqj7KhIV-17" value="Private Subnet 1" style="sketch=0;outlineConnect=0;gradientColor=none;html=1;whiteSpace=wrap;fontSize=12;fontStyle=0;shape=mxgraph.aws4.group;grIcon=mxgraph.aws4.group_subnet;strokeColor=#E8E8E8;fillColor=none;verticalAlign=top;align=left;spacingLeft=30;fontColor=#E8E8E8;dashed=0;" vertex="1" parent="J7IaDJcgwQDKAqj7KhIV-16">
          <mxGeometry x="40" y="60" width="220" height="130" as="geometry" />
        </mxCell>
        <mxCell id="J7IaDJcgwQDKAqj7KhIV-26" value="Security group" style="fillColor=none;strokeColor=#DD3522;verticalAlign=top;fontStyle=0;fontColor=#DD3522;whiteSpace=wrap;html=1;" vertex="1" parent="J7IaDJcgwQDKAqj7KhIV-16">
          <mxGeometry x="50" y="90" width="200" height="87.5" as="geometry" />
        </mxCell>
        <mxCell id="J7IaDJcgwQDKAqj7KhIV-27" value="Multi-AZ&lt;br&gt;RDS MySQL" style="sketch=0;points=[[0,0,0],[0.25,0,0],[0.5,0,0],[0.75,0,0],[1,0,0],[0,1,0],[0.25,1,0],[0.5,1,0],[0.75,1,0],[1,1,0],[0,0.25,0],[0,0.5,0],[0,0.75,0],[1,0.25,0],[1,0.5,0],[1,0.75,0]];outlineConnect=0;fontColor=#FFFFFF;fillColor=#C925D1;strokeColor=#ffffff;dashed=0;verticalLabelPosition=middle;verticalAlign=middle;align=left;html=1;fontSize=12;fontStyle=0;aspect=fixed;shape=mxgraph.aws4.resourceIcon;resIcon=mxgraph.aws4.rds;labelPosition=right;" vertex="1" parent="J7IaDJcgwQDKAqj7KhIV-16">
          <mxGeometry x="90" y="118.75" width="50" height="50" as="geometry" />
        </mxCell>
        <mxCell id="J7IaDJcgwQDKAqj7KhIV-28" value="Availability Zone B" style="fillColor=none;strokeColor=#147EBA;dashed=1;verticalAlign=top;fontStyle=0;fontColor=#147EBA;whiteSpace=wrap;html=1;" vertex="1" parent="J7IaDJcgwQDKAqj7KhIV-16">
          <mxGeometry x="20" y="210" width="270" height="170" as="geometry" />
        </mxCell>
        <mxCell id="J7IaDJcgwQDKAqj7KhIV-29" value="Private Subnet 2" style="sketch=0;outlineConnect=0;gradientColor=none;html=1;whiteSpace=wrap;fontSize=12;fontStyle=0;shape=mxgraph.aws4.group;grIcon=mxgraph.aws4.group_subnet;strokeColor=#E8E8E8;fillColor=none;verticalAlign=top;align=left;spacingLeft=30;fontColor=#E8E8E8;dashed=0;" vertex="1" parent="J7IaDJcgwQDKAqj7KhIV-16">
          <mxGeometry x="40" y="240" width="220" height="130" as="geometry" />
        </mxCell>
        <mxCell id="J7IaDJcgwQDKAqj7KhIV-30" value="Security group" style="fillColor=none;strokeColor=#DD3522;verticalAlign=top;fontStyle=0;fontColor=#DD3522;whiteSpace=wrap;html=1;" vertex="1" parent="J7IaDJcgwQDKAqj7KhIV-16">
          <mxGeometry x="50" y="270" width="200" height="87.5" as="geometry" />
        </mxCell>
        <mxCell id="J7IaDJcgwQDKAqj7KhIV-31" value="Multi-AZ&lt;br&gt;RDS MySQL" style="sketch=0;points=[[0,0,0],[0.25,0,0],[0.5,0,0],[0.75,0,0],[1,0,0],[0,1,0],[0.25,1,0],[0.5,1,0],[0.75,1,0],[1,1,0],[0,0.25,0],[0,0.5,0],[0,0.75,0],[1,0.25,0],[1,0.5,0],[1,0.75,0]];outlineConnect=0;fontColor=#FFFFFF;fillColor=#C925D1;strokeColor=#ffffff;dashed=0;verticalLabelPosition=middle;verticalAlign=middle;align=left;html=1;fontSize=12;fontStyle=0;aspect=fixed;shape=mxgraph.aws4.resourceIcon;resIcon=mxgraph.aws4.rds;labelPosition=right;" vertex="1" parent="J7IaDJcgwQDKAqj7KhIV-16">
          <mxGeometry x="90" y="298.75" width="50" height="50" as="geometry" />
        </mxCell>
        <mxCell id="J7IaDJcgwQDKAqj7KhIV-33" value="ACM" style="sketch=0;points=[[0,0,0],[0.25,0,0],[0.5,0,0],[0.75,0,0],[1,0,0],[0,1,0],[0.25,1,0],[0.5,1,0],[0.75,1,0],[1,1,0],[0,0.25,0],[0,0.5,0],[0,0.75,0],[1,0.25,0],[1,0.5,0],[1,0.75,0]];outlineConnect=0;fontColor=#FFFFFF;fillColor=#DD344C;strokeColor=#ffffff;dashed=0;verticalLabelPosition=bottom;verticalAlign=top;align=center;html=1;fontSize=12;fontStyle=1;aspect=fixed;shape=mxgraph.aws4.resourceIcon;resIcon=mxgraph.aws4.certificate_manager_3;" vertex="1" parent="J7IaDJcgwQDKAqj7KhIV-2">
          <mxGeometry x="190" y="350" width="50" height="50" as="geometry" />
        </mxCell>
        <mxCell id="J7IaDJcgwQDKAqj7KhIV-34" style="rounded=0;orthogonalLoop=1;jettySize=auto;html=1;endArrow=open;endFill=0;" edge="1" parent="J7IaDJcgwQDKAqj7KhIV-2" source="J7IaDJcgwQDKAqj7KhIV-7" target="J7IaDJcgwQDKAqj7KhIV-33">
          <mxGeometry relative="1" as="geometry" />
        </mxCell>
        <mxCell id="J7IaDJcgwQDKAqj7KhIV-36" value="CloudWatch" style="sketch=0;points=[[0,0,0],[0.25,0,0],[0.5,0,0],[0.75,0,0],[1,0,0],[0,1,0],[0.25,1,0],[0.5,1,0],[0.75,1,0],[1,1,0],[0,0.25,0],[0,0.5,0],[0,0.75,0],[1,0.25,0],[1,0.5,0],[1,0.75,0]];points=[[0,0,0],[0.25,0,0],[0.5,0,0],[0.75,0,0],[1,0,0],[0,1,0],[0.25,1,0],[0.5,1,0],[0.75,1,0],[1,1,0],[0,0.25,0],[0,0.5,0],[0,0.75,0],[1,0.25,0],[1,0.5,0],[1,0.75,0]];outlineConnect=0;fontColor=#FFFFFF;fillColor=#E7157B;strokeColor=#ffffff;dashed=0;verticalLabelPosition=bottom;verticalAlign=top;align=center;html=1;fontSize=12;fontStyle=0;aspect=fixed;shape=mxgraph.aws4.resourceIcon;resIcon=mxgraph.aws4.cloudwatch_2;" vertex="1" parent="J7IaDJcgwQDKAqj7KhIV-2">
          <mxGeometry x="80" y="350" width="50" height="50" as="geometry" />
        </mxCell>
        <mxCell id="J7IaDJcgwQDKAqj7KhIV-37" style="rounded=0;orthogonalLoop=1;jettySize=auto;html=1;endArrow=open;endFill=0;" edge="1" parent="J7IaDJcgwQDKAqj7KhIV-2" source="J7IaDJcgwQDKAqj7KhIV-7" target="J7IaDJcgwQDKAqj7KhIV-36">
          <mxGeometry relative="1" as="geometry">
            <mxPoint x="169" y="275" as="sourcePoint" />
            <mxPoint x="208" y="385" as="targetPoint" />
          </mxGeometry>
        </mxCell>
        <mxCell id="J7IaDJcgwQDKAqj7KhIV-7" value="Client VPN&lt;br&gt;Endpoint" style="sketch=0;points=[[0,0,0],[0.25,0,0],[0.5,0,0],[0.75,0,0],[1,0,0],[0,1,0],[0.25,1,0],[0.5,1,0],[0.75,1,0],[1,1,0],[0,0.25,0],[0,0.5,0],[0,0.75,0],[1,0.25,0],[1,0.5,0],[1,0.75,0]];outlineConnect=0;fontColor=#FFFFFF;fillColor=#8C4FFF;strokeColor=#ffffff;dashed=0;verticalLabelPosition=bottom;verticalAlign=top;align=center;html=1;fontSize=12;fontStyle=1;aspect=fixed;shape=mxgraph.aws4.resourceIcon;resIcon=mxgraph.aws4.client_vpn;labelBackgroundColor=default;" vertex="1" parent="J7IaDJcgwQDKAqj7KhIV-2">
          <mxGeometry x="120.00000000000001" y="187.2" width="78" height="78" as="geometry" />
        </mxCell>
        <mxCell id="J7IaDJcgwQDKAqj7KhIV-44" value="Server cert&lt;br&gt;Server key&lt;br&gt;CA / Chain" style="rounded=0;whiteSpace=wrap;html=1;align=left;" vertex="1" parent="J7IaDJcgwQDKAqj7KhIV-2">
          <mxGeometry x="240" y="350" width="70" height="50" as="geometry" />
        </mxCell>
        <mxCell id="J7IaDJcgwQDKAqj7KhIV-4" value="" style="image;points=[];aspect=fixed;html=1;align=center;shadow=0;dashed=0;image=img/lib/allied_telesis/computer_and_terminals/Personal_Computer_with_Server.svg;" vertex="1" parent="1">
          <mxGeometry x="-311.2" y="185" width="62.400000000000006" height="62.400000000000006" as="geometry" />
        </mxCell>
        <mxCell id="J7IaDJcgwQDKAqj7KhIV-9" value="10.80.0.22" style="edgeStyle=orthogonalEdgeStyle;rounded=0;orthogonalLoop=1;jettySize=auto;html=1;endArrow=none;endFill=0;strokeWidth=2;labelPosition=center;verticalLabelPosition=top;align=center;verticalAlign=bottom;" edge="1" parent="1" source="J7IaDJcgwQDKAqj7KhIV-4" target="J7IaDJcgwQDKAqj7KhIV-7">
          <mxGeometry relative="1" as="geometry">
            <mxPoint x="-326.2" y="201" as="sourcePoint" />
            <mxPoint x="-261.2" y="201" as="targetPoint" />
          </mxGeometry>
        </mxCell>
        <mxCell id="J7IaDJcgwQDKAqj7KhIV-10" value="0.0.0.0/0" style="edgeStyle=orthogonalEdgeStyle;rounded=0;orthogonalLoop=1;jettySize=auto;html=1;endArrow=none;endFill=0;strokeWidth=2;" edge="1" parent="1" source="J7IaDJcgwQDKAqj7KhIV-4" target="J7IaDJcgwQDKAqj7KhIV-5">
          <mxGeometry relative="1" as="geometry">
            <mxPoint x="-199.2" y="221" as="sourcePoint" />
            <mxPoint x="64.8" y="221" as="targetPoint" />
          </mxGeometry>
        </mxCell>
        <mxCell id="J7IaDJcgwQDKAqj7KhIV-12" value="" style="shape=image;verticalLabelPosition=bottom;labelBackgroundColor=default;verticalAlign=top;aspect=fixed;imageAspect=0;image=data:image/png,iVBORw0KGgoAAAANSUhEUgAAAlgAAAJYCAYAAAC+ZpjcAAAAIGNIUk0AAHomAACAhAAA+gAAAIDoAAB1MAAA6mAAADqYAAAXcJy6UTwAAAAEZ0FNQQAAsY58+1GTAAAAAXNSR0IArs4c6QAAAAZiS0dEAP8A/wD/oL2nkwAAAAlwSFlzAAAOxAAADsQBlSsOGwAAIABJREFUeNrt3Q+sXVd9IOq19rlOnGLNczW249ie+gTclopUDWoyXKN06jxAoY9UpALU8Mi8piJgk4IKGiKCIPaxgQcMVAQRIKFBDWpQgwgiEYkmCBBGA01SqEj1QJPpC+R4XmLf2O40b55Dru1793p7nXthaP7es8/Z95xz7/fNnPri+Nyz9z5rr/Xb689vhQAAAAAAAAAAAAAAAAAAAAAAAAAAAAAAAAAAAAAAAAAAAAAAAAAAAAAAAAAAAAAAAAAAAAAAAAAAAAAAAAAAAAAAAAAAAAAAAAAAAAAAAAAAAAAAAAAAAAAAAAAAAAAAAAAAAAAAAAAAAAAAAAAAAAAAAAAAAAAAAAAAAAAAAAAAAAAAAAAAAAAAAAAAAAAAAAAAAAAAAAAAAAAAAAAAAAAAAAAAAAAAAAAAAAAAAAAAAAAAAAAAAAAAAAAAAAAAAAAAAAAAAAAAAAAAAAAAAAAAAAAAAAAAAAAAAAAAAAAAAAAAAAAAAAAAAAAAAAAAAAAAAAAAAAAAAAAAAAAAAAAAAAAAAAAAAAAAAAAAAAAAAAAAAAAAAAAAAAAAAAAAAAAAAAAAAAAAAAAAAAAAAAAAAAAAAAAAAAAAAAAAAAAAAAAAAAAAAAAAAAAAAAAAAAAAAAAAAAAAAAAAAAAAAAAAAAAAAAAAAAAAAAAAAAAAAAAAAAAAAAAAAAAAAAAAAAAAAAAAAAAAAAAAAAAAAAAAAAAAAAAAAAAAAAAAAAAAAAAAAAAAAAAAAAAAAAAAAAAAAAAAAAAAAAAAAAAAAAAAAAAAAAAAAAAAAAAAAAAAAAAAAAAAAAAAAAAAAAAAAAAAAAAAAAAAAAAAAAAAAAAAAAAAAAAAAAAAAAAAAAAAAAAAAAAAAAAAAAAAAAAAAAAAAAAAAAAAAAAAAAAAAAAAAAAAAAAAAAAAAAAAAAAAAAAAAAAAAAAAAAAAAEt2uPMbG1wFAGAU4qQd8D932utPhta2UJ4+uwjFthDStuosNoeyeuU/Q1z4uxCnFt8y03ul6lWEmZhCN//v+fx3MTyWYpg5p9PtKgoAwKoJsB7utNeeVYZLipgurYKky6pDbqBnKs1V/+e+6mLckeLUnZv2/+QhRQMAWFEBVh7emypPvjameGmK4dXVX61d5kN4MMR0exni3Zv3d+9TTACAiQywju570Y6Q5l8XQrq0OqyLxucSpUeqq3RPSvH2nxXhO+d2urOKDQAw1gHWzN72a4sQPlL9+OLxv1zpRIjx5rl4xoe2dP7xuOIDAIxVgHWs096VyvDh6sfpCbxuj1cX7voTRfioHi0AYOQB1tFO+/wwnz4QYrx0BVy/meoCdjYU7c/HzsE5xQkAWNYA60in3W6lsC+kdMUvpVBYIdJDKYRrzz5w6CuKFADQeICV81ad7gVWYU9Y/tWAyx1o/SAW8ZqNne5BRQsABFiNOLZ3+2tSiLdWP65fZVf1thBf8JZNnR+fUMQAYPVpNfWLj+7d/r4q0rg5rPheq2d0Xkin/7drL95w9388+N//h2IGAKvL0HuwjnZesi6kJ/4ypHC5y5u35ynesKnz0++6FACwegy1B+ufOju2pfLkN6ofX+nS9lTBZvl/XPP76w9/7Dv/7w9dDgBYHYbWg3W088KLQll+ufpxs8v6TFc63bAxnvsu6RwAYOUbSg/W0b3b3xxSur2KIv6VS/qsEda//Vn5+L971/+66e6/OPhPP3M9AGAFt/qDvDl1dk0dSw9/IqT4dpdyybpFEf5gQ6f7oEsBACtTMcibj6XuxwRXfWuXZfj20U7bUCoArFC1hwh7w4Ih/p8uYS3rQkq7rrl429987OCxUy4HAKwstbasWdioOd3o8g0iXtBLZxHCG12LwSykBpndHOP8tlCmrSEvtIjVK8Wc6HVmPqfLiOGxFMPMOZ1u1xUDoPFWvu/GbN+LdoQ0d2/11g0u31C+gM7GA939rkQ/AdULLwqpfE1IKW8Y3q6u4ro+f8VMTOlHIcbbi2Lq7n/deeiRsTivve33VAXixcv6oSk8mEJ6qCzi3zcZfOb5msfTw3+VUrxoQovd9ZsOdD+5tO9x+5urstXXec7FM67Z0vnH483eN+3qoSN9YCl7wRYxfLSfeaJbX/a26RTL3Uuu92K879EzN38+HOyMdFX1wnGnN1cldEmdDTGFx0OY/4tH7795SXXGtuk9u8qQ/mSZG5XjuX4ry/jjI79yzgNNX+P2rivXnn7yjD9LMZ7X12EW5Scf/du/fKDJY9u46+p1a2bnPrykNiKFOw7ff9Odw/z8qf5u0JesC+UTXxNcDbN9C52qYX2wqry/5Go8e7kryydeUVX6l/WCqrLcUPP54Oc2V5VBngP3yvlyLjeIP6h+vqNqVe7e1Ok+MIpzPLa3vbsqCx/JBWL5g/wYWmUvwHswxnRXiq07h50c93j58J+nEK+Y4GJ4/bF9L/zexv0//cHzBld5B4s+v8epcDI3gm9p9AzK8O3q2JYUwJepF+jvXGIDu/7UbPk3Cw87S6z3UrrynCePrD0SwidH9YVufdlV26qg8N6+6utelVPkdvMdS/n9ZUpfrW6v5d0qLuX/X93VRQhbnjzyeJh+6z3VYd+zZu2pL3UP3jI77I87Obv2dVW98fG+D7MsllzG6lozO//lqsy/eokV4RVbXvbWiw/f/7l+676fB5b5AfVErQCrt2JwvvvlZX/CXh1h1s1V5f2T56u8V11glXtLw/z7qqD+8iJvuZQGCqqe6866oPo/F1QN0AerBjI/mX5kY3HuTcuZs6yquKdHEVw9xYtTqhrgVL47B5054NtUnHvncK5D372M4yeWz38OueeqzveYwpVVHXBTw3VAP3X3khfhnH5yal11W7b7vpwhXBlGGGBVDxJvqlUMUq8hXUJRmNqRQhrtPry94C5eXhXJy0/NnvmRLdNvvTGcDp8+/PefOz68jyh31KyXp8+Z3vOmI/fd+MUxKfNTMYYXVX9+d4m/91PVK/dU/3w7wBy83lO9rqleD/VC8SU/YafuB6pr+OpAE3fBupTKr1lZuBhYVdfh6L72J0Ka/79ywxOWdT/LuK163XCsfPi/HN3b/uNVXCYvqJ6Bb8/XYWbvr71CqWz8ek+lNP+JSTzyheGy+M0aLfP5W1/+lvNHeOhX1njP3Kly6osTWsiq9iV2wpr4/1SB1r6wqzM18lIf0sfzMN6EXcc3V6+8M8vj1ev3qtdZ1etXq9frq9f5i/9teskBVtXQ/EnV0F07QRcgP2E8sPjn5BT+Mn3t4U57NW6OvRhYvWTdsb3tfaEM/6Uqb+8MI90oPFZPZeG2quz/cHUHGHFHEeI9VcD74dyLLRBq9FpfdGzv9jdN4pGnEG6p9cb54k9Gcbx57lWfvRs/d8+x739mZsIL2tocaG2ZPfKfN0/vaY+63VtzsnzfBF27HEDlBX7vDws9VWdXr/wg/prq9V+r128vxh15yHzd81aYvV6VMlw/hrf0I1X4e0dIMQ9lzMQiPFb95cymTnfmGc8hz7spw9mxt8IsXVDVCJct9FaMV6/BujK8p/ph1U16zw1LKp/4eBq/rZbOL0LxzaPXtQ/Ot8Kfrs5ViHEqP2AdS91dRzrtN1qJ2Wig8pHqIesr53a6s5N03HNrizvXzM7n+Sd99UakGC4PuzrXLPdk9xTn31RzWOvWFVTcpouUfrhleveew/fdNLo5wCm9c9vOqz//yL2feWgCrlle+Z+HEP+ieu2rXp3qdUNY6L3Kbde/CQtzKfPcvj9/3gArprCvuunXj8nJPVDdEnekIty5qXNoyZORF4OuXw68vlC93nFs3wsvSGH+tdXdduliZDoOFew7q4DwpmcKFFdkg9LbDaD7sbTQYzXGMUbY1SrDvceqAGNjp3twlbb/060yfeNw5zd2Nr3ibfWK216QUn6iv26iHpAOfuZE1VDfHvofdtu89WeHL3k0hLuX61jzqrdTs/HyGpXz42ecdfLOlVXcem37bVtetnt22Cvo+rC2LOc/Vv35R2N+tXIAlefrXvWUv8/BVm4Tcvn/zer1rep1vBfAPtdvy5OMU0pXjfikHs+pDFrF1L/ZdKD70pzSYFgrvfKE0k37D12Xf+98Ec6NvWg0nRjx+a4PCxXsivfPnfb64/MP/6cw7sHVL91gqQowFlaKrdoAYMfU/KkvGy5stHvl3Uc67fakHXYR4hfqvK9sxSuX8zhPPrk2D+ds6P9rCbc1sQpvTAKtW0c6Hy6Gy7bu3D3uUzF+fk/++Cl//9kcpFav6xeDq+xH1eu85wywYi+qjCOqSNNcddGvr+7a38pBVdO5ivKwRy8fVRF/PcY8xppGl58lhT0LK+hWruOd9otPl+n7KcZXTlhNNJWX4R/b1/7sqg0yYth1LD38WZFQc0/0rfn0sUk76EfuuzE/xXf7Lk4pXJpTPSxf8U210oUUqfjCCi5z61JZfHXjhVePbIpGSuGGcZh4/xx+nhdu61P+Pi/wyJ0+uXfr58efpx/NPWuAlZM5ppx3aDQV+G1VO/Zbm/Z337XcQ2X58zbu774tf371jd8+qkZ8IbhdmY7t3f6asgquFieST2YnQxUEH5vvfmPVrvxM8are4hcaqgLi6ydxcUWqN0dp7emTa5dlxe6W333rhqp9ubTGmT306P2fvW+Fl7r2VGv+b0b4+S8+58kjfzbG1yevGswdPU/tFPhKWFhN2K5e71v8M7dtB5+9B6ssR9HAd2MsLqwCqzdu2v+TkU54y5+/6QOH3pCPpzehftnbr3BZL2P5Sguu8jZLOannisiLFHaFMnx1TFZ+dp//NexynD5oqLA5RYjXT9r1bcVWrV6enHh0WerVqfimUGOLuBiKW0ZwOY8v7b4OQxu2jCHsGuVQXZ6m0wuCx1deQZinTeXeqtxrlcvFicXvoLP4bz61+Oenn7GgPbZ3++vCYh6HZXz0OTjXOuMN4zZ5Ns/TOtppXxjKlDPCLm/AU85/eDEyXhF6c/rKuS+Pbti5EdPrUsorS/79CAO9j1QPJe9d8vfQaZ9ftWivq+65ywfrRYzbjpYPv3bxCW6FS99NYd0yJwKO5x0vu3m+302TcpXySrAt07vzKqt+68rpbTuv3tH0SrJYL/dVnjGyzMOD6aHTa6demhcPLOVf94KSM2JesFXd02lXqLnPcO+Ty/D28D/nEi13XbY+rYkfqH5625gW8Y+GhRWD36heee7wn/7Sf8uLBHJbkHtIP5gDsKd9Cb1VXeXDH1nei5pu3lic+7blzJzdjzxsWF2Xi3vzTlJcxkn/8aKZve3Xbj7QnfiVKyt5m6WU4hVH925/cNOBQx8azQGEB/sszw8sPn1d1+slLctcKdTaoaFIYc/yBFjp/bGI3xvZd1wFV5s6Pz6x/J8bPvLPnfaXfrXTfXxibohYPdWnvgOsMJ/m85BzY6snz375nvOqB+UaE7njN5e69+Dwvvf4yFKDq2wxM/vn86sXbK2JeQTqyprf36U5P9bMfTd2R1N8wlVbX/6Wm5rep7CmHKP8QfX667DQe5VTNOQJ7XlEJm+Z8/jide8F5E8LsKrgavfyzY1JczHEt2/cf6h6Qjs03nXGQvD3lqN729XFzPsuLU8vTFF9VhXc3T2uweeSvuVVsc1S/GAVDP9o0oLhvOdgFfxeGOZP/FWe99P3dxvjK2c6Lzpvc+cnP2rsysZwY1VHfCisTuvnUvjwGD/RP83pM1tfWjM7nxuevobOF3uXGguwWqnepsu1k6iOyGKw9afnTO/5ZgzpltB/b9ZUEVOeC3XNiE5hKpVFHmYb19GbPC/8VdVrV1hIMJrn4eZrnjumvhMW5mkttt9PL+bvXr7gKly28UD3pkkqvJsOdD+Z93VavlWGccdjZfc1k9xCHE8Pf3g1bLNUBcO39obfJkzumXmiFfMQZ61JvK003+zE1BRWRU64Zz39lK7KQeykHO9Cz0u6o8ZbtzU2/yevTkuhzurBEzmJ6iSWm7zHX0zp2pr33JU5X9gID/+iLdO7x32rsoOLQWiuO99Vvb74y8HV0wKsxcahvUyBw7s3Hjh09yQW3LMPHPpKdfzvX67Pa8X0+jChHtvbviSl5Qraf+HxPIchLEzsXsaev7guz9WbxInfOXN4q5h6Q6gxYTalZZ6vuerEqWJ+/lMTFRTGepPCU70g6Hmdc3LmFaHeLhG39zNUN24evf9zOQnmXTXeuuH0qTWjHnH4+IiDvCE8dP/L0v265akv0s25J2iSL1x1/B/tzTVYlifYeOkkNtr5mONCt2mTZnJ5KkO4LCeLfaIIZ1Xfza9uOnDo16s/z63+XDNXnLGxLFq/XR3R26snum82G3TFHQvD7JOnl2su9hLm9asdaLjODLsmafPxI2du/tZTn+aX6PVNbP4bU3llvQYyTnzuqxjrbXWX5ovtIz70badmz3jPJF/7qac8dlza+CemcDBPaB/3OVdLsTG233IsPbxjGVYXrn+s/Onvh1Gt7KjpWNnNS6KbGTLr5UorPp3nED3fP11cmZpfeZ7Qp3MG+dNl72Hi2mbmG8b3V5/xxYmamPyLy1p8OoW+G6P1+ZpO4vlOmLxP4Z0TsU9h3ltw555bQ/9DVOvOmJ3L9+bQApucxPTUbKyT07G7mDx1oj16703f2jq9+0dpYRJ2P431GOzVG6/dPL3nC6OacD+0AKuXOTzNNz1/pBta4Y3DnrCdn3imZsvXxpjOjylsLqvIN2/qnDeBLqqnqBTDTErxgTyWPszu3nweRzvtN4SFpJmNFsYi9iqIiQmwermhygZ6r6oAvSpD7xpku6TFQODzqbPrC4uLOvJw7zAThm6eK8OfhwnctLuXlmTv9uP9rvY8vdCL9UCgSe0XlOk/VH9OxIT/+Ri+2Erh2v5v8eKKYQZYp06emQO2GkNNvQniK0LVBt5TXdj+Aqwitsfg0NcWocyLPN44idf9fw4RpvnGJ1LHIvzpMDOznzO9501bpvd8Y83s/D/HkKqnpfDuKqi6Ii7M7n9x/jP/7/z3+b9X/+5Y/vfDnDyXz6cMy5AkL40oq35Niw3BEIOWdCKF9PpNH+hePKy9KHOAvOnAoU+vKcJv1Rwae46vK1w7wVne+35aLMuwPbAcT/Tv/6fOjm2TcKSP/e2NP6ruqxq5w9Irt77sqm1DvBlr1c9FnPriigmwyv6Ha9PYDP3Hy7dN79k12QFWaHgidUp3bex0Dw4lsNq555ItL9v9w15QVd2MYenLUNcu/vu8e/gPh7ViZfOB//athbk9jRaybcf2vfCCSShUhzu/sWHIq1G7VW33ewuLC4Yv92jl3QNyrqVhPnlVZf4Dk1kb9x9gFWMxnDCR+h3uWzuf5iZnG62yZi9QnBrKNkw5eWnoP+lp9t2mk54ua4hSZ4/I5gKsvkewqofrT435PoXPHmAtNIhNrgRKc2Vr6r2D/pY8FLhl+q1/UwUz91Tf/vkDlrjzUwrf3Dq9+6+HsVIhtWLjOUNSmH/tJBSqqXQyD48NafPW9N2qlO4cVq/Vc8mJQqug/dKhTYKvnpwnpbfhKbXCTI37aXXuyThwy5duDgvJCfspV5dPzDZac+FLoc7K1FBvUvpTLSYvrdM+3LKiilkoHqtRfzWVFPq+uDAfto9DCedtPTnz5okMsKbKk69tNHFmjLcOmogwdxmvOTn/7dxdONygJVxxavbMbw+6i3gvAGj6pkxxMtI1DG+xRO65esNybvi9kDpkWNn649R8efqSCXzaXV/jO5/Ypeyjja9iXnzR6fuNZfmpSVhZnJNeplgnTUDcsfVlb5seQlmuk/ZhNidLXUnlrCzS/1LnOjTTURBygvF39P2+Mn0kL1iYuACr4fk9s1UpH6j3Kgc/Kba+Xx1nU0Nk02ta898fNMiaj71JzU2u8HlxbzHCGFs8viEslkgnqtL5R8sZXP0iWD7Q/ULe3284DWi4PEyYlGoNDXSFSzXrt6L96eqPB/t82/nHyof/ZBLOL5bh1lpBQSwHOr/FeTt9l+U44bmvnvmcag3hN3ZPL6zOTLf1eRLrT82eMVHTLhYCrBhf2dgXG9MNgzSSeVhwzdT810JofAhiWxVkfXWQ4cJzOt1uVQhubPaJd/4VY12ihrZYIl61HMOCz1ruYvu6YcyrSzFe1NuHcbL0H2AVxaNCpZolvXNwLi1sHNuvvE/h2D/RHz7rnJxQ+nidh5NB6uMy1Nsap4zx1pVWxuo8NKWGH5rKULy3/w6JuKe3p+SkBFiL868ay5ZaNTADrcRYMzv3lw32XD3V9OnZM/9ysNqyaHTj2xTHfTLxEBZLpHBw04HuSLvoc6M335p61xDmY60N5RMTs9XRwpyx/lOOtELRDdR29oHu1/NCoD5L6YbTKewb+5M72JmrgqX+g5YY1p98cm2te2cxMKtTFz2ymCR1ZQXxIU73/55mA6yF3Fap35GCqVYZPjExAVYR5hvsGUqPDNILsbDKLy7rEEuekzXIktCFxJepwZ3X49gGWMNaLBGL4ppxOJ/evMEhPM3GmC6dlAphPs3V2FcwzfWywDf3UDFxq4fq1cY1AvqU3n680x7/TdRb5Rdq3jtX1nnfydm1OffVuhofeGsvSeoKsmXnW1+8uHq+z7YwPtL0sZ2x9tRHQ9+BXHrlOS/b87qJuKVDefrs5mKBePtAFWsZPj6Ki1LGNNgy6JzUralLWo5vD9ZUeeo1gy6WqCrUW3OyyzF69KvRjf3UNjBcNgkTknvJYVOqMcG/4Yo4hXdOzKq5AWza/5OH+t/WJE6l+TT2+xQ++rd/+UD1PdZ52H51nbmxMdTLfVXV/l9YcQUrhVqbscdUNr7dSvfgLblu7TsZbdVOTMQ+hVNFKBprsMtU3lX3vTmJaFUyzh9RgbwgR8hH7r/xK/XOO91WDG0l2lOf5sd3OXzVOExXwcSgv+TzY9XodbozR/e17wgDTVaP6/4pdPPk/wfHuTJ4QQqf7TeD+2IE+aOGS9a6UJb/+eje9rB/8UxRhIs3dLpj871Mxfih0wsbHm9eep0QX3ls7/bXLKyAHV85b2EKsd86fWqqmM+JoZe8d21ecZ5q9NjkpKiH7/3cWN+jfbejO/dcUt2fe2q8da76f8tyLQ7fd9OXtkzvfnvoL19Z+/Ts2rHf1aBobr+hdPzs4oXfqX8z1n0CGVawUD87+5NF8b3eKrhmjG++oXLQY0vHN4T2d8fttGLfc2OeKWYf7zxRR/duf1/djNdpcnMGbR633p+FbZz6T3hbla/rez2QY+xU2cuM3vfwW79tQYqtN9XsEZjUcvyM8tBgVXflUaQ6vef35BQby1bHFuU7+i0bVRB97VAz/jcSYDXVI5LCwbp7Di7spp5GPSTwyrq7uvc2Y01NDRPGDeM63DRw71qMdw17n8qhnFex7s5BJ7unMd1KJq9CO3rd9i9XF/+DNX/FzKbi3DsntRFKTeb/q2ljce4XqiPrc5g87njBwv6XY+vY9z+TV5P3Xy/GcP7Wl7+ln56vOg8Ks4tJUVdGcPWyt/5ZVSF/P9SZh9ary+MNy3m8eQi5eki4uc+3rQux9eGxDrBi2cyk6Rhj7WGDNbO9pf6jfhpbu+bJAVIiFLGxbRZmQndco/aBAqw0hJ6iJmzq/PhEVeMM2LM2XnPnjnTa7aP72h8+Xab/u7pZa6/8jCHcOI5B8STrXc+i9a4aZez9477/ZUrxllpvnC+WlHJhMTlp35P+czLU5eyxaSQw33X1ut7+vDt3fz8sBEg108Okh47ce+PXl73cn07XVU88fe1qkBelVcHk2M7PnGpwTk/9BJExnh8GnswzjG+8Nwes3tN5Co0lyJxayFPUHcPy1B4s2m8dGtcbJRTV9R6kSDY6dy5dVQVLu5b0T8tUPfXFC0L58+8qDvK5c6mINwmJmgjqf/rd6ju9rb+5f3FdTL0FOv9+XM/rzLNm7z715JmP5xQMfQZAl4ddnWueb4VfivNvqlOm6yZDbazpqYLELdO7/6qPN5wXZufP7zUPAzadMTWby/HZ5AC3CpbeXx1Bf71nRfxEVTZ2juPqz6nQ0NyQ+UECrJTG5Cks1g4YUkiPxIEar+f43WU4e9wKUu/JuRzwvGL5SBhTVaXTHajeKpsMsOJFVYFb2lNcHGKZjPH2UWTaXy1aceqa+TSXd9lYcm9+SvGKmX3tT2/e371vHM8prxo7Z3r3bVUp7Hfi9eatPzt8yaMhPOtE/ryq7NRsrbQ+xxeToY6TXF9c2UeDMywn1px1amQLjQ6fteWmrbNH9uS9B/s49wu2nDzyJ4dD+Py4lfciNLVjdgyP1X1ram4X7zqFvN7pF63HxvG4xvmYxryxnhnwflhpmyF35+IZ7wg0JucWqwKRvrdsKtJ4p20oUlErFULZis8ZcCwmJe17FWwvCeoKy31Vu5oq0+VVEPz4yA4gfw+xxq4GKXxwHPcpLJr6xSnWb5CqAj8WFyoNMA9sPjTXG1NrM96mb8yBjymNbe/V4vENuip0ojYpfb5rURatP9zS+cfjgUadKMJH+7834gVH97bHdp/CR+//bO5d6zsFQNUuXPpcjWgM6YpaB9Ragbmv6t3XnUf/7nMj78l79N6bvlXFD/3m0Nx86uSZ71s1AVZvX776wdnjk15UN4d2kwHD2PX0zA08JyyO+RZAcaD9BGMKK2YorXrwuLKX5Z7G9VYkh/juGm8d630KY6i1Q8La0yfX/vEz/Yctv/vWDdUvvbRGYX6glwSVuw7f97n9Y1PHpJh385jt87t850LW+rEKsMaw5yCG42NycWpfmyZXVqUBM4s3YXYIQd/CPnhjHDMP8p0Vccx76Jbs2rMPHPpKYNks7MuZ+l3Fuvl0Cu8Z3yh9rlavUUrPnJ8wTcWc+6rvlBs5+emqL2Ax/OD02tYbx+mQ8j6FVTvX704uUyHFsdqnsAhj2FgXZRiLxijF8WwUyzB+k8EXnrQH63ksUzloZ52YAAAVsklEQVS285RSHHReYJrwACsdryq8V1eN/UeFPCNoA2Orzj6F7z6670U7xvF8Hr3/5up+iN+s8dbpbTuv3vH0GKFW7qu5xeSnqzm4+vjhM8/ZeezgZ06M26GdufZkztLeb7356q3/9q2vGZdzKKqWo5GKf5Du6aoiPzgWZW++rJ37qMnemKKYOjmmt+tAvVhlmt8exlU5WIAV0wT3YKVwsFWseenZB7pfDytKOhFaxXWTcKS9/Tn7zpgfp0I5/6nxLVb1dgCYT/P/Yn7Z2S/fc15ORlrjV92zmPx0NTqeYnz14XtvumZcJ/gv7lPY9/B4KsL1YVdnLBII54NopAdrfmFIpV6Pxlz6XlgTR31t5tb8yqnv1a885tY1dWDzYUzTGeR5RjHUHgMvYshL0sdu+Olw5zc2hPLkRYPkjJoPkzgHKz2UM7xvbLW/ONpkomku91DMFfF7wy2uZ56YqIn6MeZEjDkp7NIfXmN49WN725eMY3B85trZr5yaPTPnXOqrrlzsrfpFYNxKqdaE/tpJTyfbiZjCzafK1kcnIbist09h3LFl9sh/OBzCyHvbp0JRVfwN5PRMZXpRqLm5bS/h2PTuvKXCq0d4be4ZZLnqXBl+s6kVBK0xHNZdiJAGS8ZZVXiX5m2Axi0z+Jry5CUDb6kyQNqSEbivDOEjmw8cWkyy2x1xXBGu37j/0OoeygkLaUyO7d3+waosfry/oheur+6r3z5WdsfqfHIPRVXP59ViV/b51m1bd+5+RV5t1uupmD1SZ/Xg8Zz0dBUVnyqYSjeesfbUJ0eahqHO/V+U70hl8f3Qzxy7FK7deOHVX+g92o40wOotPx9+b1FVCQw09l81tjfHmEYWYMUyDZTNthXSjtRIotE0t6lzaDyfPFKvx2OQ37D+sfKnv1/9+a3xOq/4+kG/yjKe8VAYX93qqfaBFNNdrWLN13P+pTG7/icCPRuKcz95rHx4T+ivfn3x8fLhPw8hjt35FCF+oQzpyr6LRAo5qPrWOSdn8nZmfc/drJ4Db18cglqpcs/sg3m6TZGKuxdTY0ykvMrznOndN/eVnDaG9Wta8yPfpzDPuv9BI7+53pj4Lxw5a/OdW2aP5B6w5V92GcMPBs0HkmI8LzSy208c3+XxRes7oRwsnXsrFW8fpwAr79mXyoF7Uh9odCgqhltiDH2vyqqK5+NPVJXw4gIFJuFpvnNw7tje7e+svru7+vuu4/vH8Xweue/Gg1umd3dD/8mlX79x19XviLNzV9YJHOsmO11GM1Xw2ffKvjKVc2EuPDjp+yo+rdznfQqn4uV9brGUA/eR1m1TZdH6+6JsoBsthV0Dvf9gZy7u3P326knlm8v+ZZbFO0Z+/s96cOkH43oT9PZP27v9kUFyWqUYLjvaeeFF+XeNwzlNpfSBqnEacOPxdHuj5TWF7sb93YPCj9Vh44FDdx+9rn1Pnl/Vx9vGONFtuiWHjn2+ad3Uk/NvDjFeVuMDH5yAHp3ZHHwq7Qtq71M4QLLwofQ5LCQMTE10wbfz0/8gv6A3xl5zpckAN/sNg958i+fdbubwwnhXDDHcM/DvKEfftZsd7bTPz3u7DX6XxdU014PlqLhbof+0DWOqDPV6k2LsbSNUpwG9RQmawCDrrC03xRAmKsHxz+dhN5LJtlWmgfNRnF7bekcesluW0CqEg4fXbnnXEM77Fc19Y/Hvx7qyTOm2IURpF416q4882b46mSEscU8Pbep0ZYpmqDZ0ug9WEcYNK+FcclLJ6o86Pda1eidimv+iEjSB6u5TOPIAK8amApjLB/0FOQHa6bnWH4aaKxL78ODcfOuNw8gJEtPg5/0sjfWJjaE91hH8k0XxveH0iKYbju174QWjOo/jqfupHOgNHivGuwI0YE0M+3MC2BVxMnG5epXiNxeSnDKJau5TOOIAq7Fhp3jRMBJu5nwdp+dbF1c/NjU89t3Ta1sXDiMvSD7fFOMrGzrOB8YthcFT5QnTMYY7hlB21qVUfu1op73s2d2P7W3vTqmPFSvPeRqFbWVoxK92uo/HMZ283q/TZ7a+FJZhQnIyPDjxau1TOMoAa74I9zf1AfNp7s+G0ujlIGtt61W5Z2OIh5e7HD9+xtqTrxrWVgFlOffmxp69YpiIpbZlisPa32tz9cu+sZxB1rG929+UhlbG0kMbw69N7PJoxt+Gov350NAUj2V9qKnq3xga75k4kZObKjWTreY+haMLsM7pdLuN3aQp7Dnaecm6Yd2Eh+/73DtiKnaGQXuzUnigCPFVeauAYeVDebjTXpvCkHo+numQY+vOSShUvazRaVjbHcXzQhl+OLOvPd3oU1Fn19TRfdvzisFbw6BJRX8eaIb47nHvcWSy5fIVi/CulXEyTfcuxdtWeO6rVaPmPoWjCbAWynZju4qvD+UTQ+3Vyav8Dt93084caNVYVXCiavwvO3z/TS8d9jLYF5Qpn2dDvS15svR4pC5YktZQK/3NRQrfPrp3eyO9g3nfzGPzD3+1imCHONySvrv5QPfOAA3b2OkeDCndPunn8eiZ53ynyUazauxMbl8h6u5TOLIAqyjWfKnBz+kMsvnzcwVaqcZ+h1VwNfSGb6GXrsH5EDHcNkk3QF45F+NQg/a11UW4+eje9r3HOu1dw/iFucexCtred7oMD4cYLx3undV6r2qQ5TLfmpx5Kc+qt0osNvWg35VXamXJ+xSGeqtPlz/AWtgeIzV1sOtPp/SBhn53vxnj1/V2Xx+2dOI9obHeq5ydIU7c01cKU/sbqPSnUxm+ffS67V+b2ftrr+ilU+hTXoiQJ7K/IAdWIX4wDDkJY0zhjonqbWTi9aZ5xPTxyT+TsqEM6zmZKStN3qcw5LnUY+pfNE4xxFtTX7tW99Xa7pnZ1/7i5v3doU363bbz6h1lmu97flcxH34zDDFh2fFO+8Vl2Wh35QO9vDcTZtP+nzx0bN/2G1KKw782MV5ahHjpsfLhE9Vn3FGVr3tSEX9c/ZeZvCnuL4pdFYDNhO62Vii2hXL+96s3XjpfzjU4nyvNpWLqGlUfy9/arPto9aB35SA7KYy8V+Lezz24ZXp3biOGeo/WTWbKeKu1T+GoAqzTxRlfmSpP3jCsSb5PufunihT+6mjnJRdu6vx4KCv25svyd2KN/UtjEXJ+paGsJskN+LGy+1ehwZT8Dc6Pa76Axfih0ym8PjSV2b6XzqG38esVYXEbxKN7ex/Vrb6dddV3s6G1WMUuy2a3MX48B5aqPpb9gaaqV4/t3X5t9ZB860SfSKrquxiHGWB9dzGZKSvxuaLePoXLovjl/5E3pI2p0cSIL66esD4xtAtbpOmaN/DQhgiPl933Dftp6ylmUxEndnJmztVTFjlRbCPbMT2XKsqKG5a5YbhrY2xfp8pjVDYeOJTrislODTIXhpsTK8p9tZItbGydxjIfXPG0NqKVswM32QjFq/L8l+H8ripgq+f8YXz8Y3vbl6Smv9gYbvzlIa9JlPe7jL2s/mkFpyxIPwqtdW+UlqGBKxvCnjwM70osscqIQ9isfsQNZophWA/6s4tJTFnJQdaY7lP4tKHAvPrr2HXtO6oCfllTH5oTOc7sa//DEOZj1e052rbld9+6YSHyrefovhftqOKF25sZTv2flUMVYH10hTxZ3310bzsHox9Zgff3zHwR//CcIQ198/QYvSzT96vyM7JtYao6691nHzg0EUkqN+7/6Q+O7mvfUh30lZP6hRfz6ZZUxNcP/nwabh9WEmnGWF6BunP3O6sy/82xKsfPWJk03YuV52PFYqDAZOOFV+cVe7WHgOIZ8XcGOoM095t5/k+zl2nye6/+RfB+oPvRldddn+ZCUbxhMVkvzd0M+V5rj+pVNdS3zXRedN7kXK7w3hEMyw/No7+y5evVH8eHcB1uce+sDuO4T+EzBli5F6v5glkONBH4jDj3uwN9ehkGqixjEX/S8Hfz+MJmrivLxth+y/CyvI8+uKoa3iulZFgVAd5UK8xvmJSjXXgw66UgmdgeiZgGnqz/yGLyUlaJVujlHxybfHDFcxzqhxqcM/P4wD0zRTHQPKoYB5uH9a9D+6Em5xRVDff1eYL4imumOgfnNrbarwox3Tzhp/J4GdKrFycVw9h5ogifzDtATG5rOWBOrJy0NA8dsWo8cu9nHhqnfQqfNcDqLTVvrBdr8Ju+jGmwieppsABrYTJzbKjySsenepXjCu0LqK7dpv2H3rKQu2QiJ74/GGLrws0H/tu3VGmMq3M73dm8H+akHn/OcZT3jB2glZD7ahWaW9vK85bHYp/C4rn+45qYt19IQz/QGMPASTNjGjDAiuG8sKszNdgxhEaSf+ZVUyux9+qpNh7o3hSL+KocUE7MQad0VyhecKFcV0yCvB9mVVd+c1KPv6oL6z7k35eTlioBq09e1JBCvHbsA6zcyDeRITUNGJi0d125vgpvdgx4GFNbTz062KTVooHu9xhum5TVSkMJsjrdg/NFvLD68YGxP9iYPrixde4fbbJakAky35p616SmSJkreykW+j72GOMtvvnV68h9N+apGyOfG1s8fy/DoburhuWGIT+VDBRgnXryjKGs5inL1ksGO5FhDxGmR9bE8LbVdjPkFXhPFGFn9eM7x7I3K4WDZQw7N+0/dJ08V0yanIcur0ieyN6I738mz9W9p8+3zaZT5Vd886tbKsO7woj3KSyW9K/iujwzvzu0joABV+ClEH93KMcx4DyuVBQ/Hm47Hq9aDUODzyTPF9l0oPvJNUX89RhCJ4zHSpAHYkiXbvpA9+Jh7qEJy21NjHmHgYmsW1LqrzcqJykdJMchK8ORv7vpB1Urf8soj2FJAVYeEolF+NNhfegTA/ZgDboC8JfuxIF+z1yYGt4Yf0w3nH2g+/XVflPkAHPjge7+qmSeu9BzOoqhjd7Q75VVwPfSXg8urID7aly3E3k+Z541m+/BJQdMOUmpb5ye0+V7Qxrdg0Wx1H+Y58os9iwM2ng9knsrBvsVQwqwwmA9WHnvxiE9FT6w2EvIL4L67sym/YfeEeLUby00DOkHDQdVJ6pH5dtjSFc8UcTfroIrK5BYUTYW597U29JpwnQP3lK1F+m2Jf7zmcUkpbCw7dJQ4pZ6+lpFl3sWju7bvi3vJ1i/HYsD3eDtXVeuPTUbhpVReUPOCL84zl/3hB4KIV4wSP1Rhbl/YOL0swRaC6v1PpRf/9TZsa0s515TBUKvTzFeVP3d2kGD/RjjXWUKd/ysiN8ZOPAfQD6Gogru+t96KZ2Yj3ECGpTefTLJRfHB0+GMHw33e1ze7y7PH5zZ+2vvLEJ83lWFMaaxyohdFZ1PVw/Wr6x+eq49KfPWYu8fl9xX5enyR2FNfPB5jvnZzvf2SbkxTs9P3bSmNX/5Es/zREzpuuU8viNnnfPpLbNH9izh+GZinPrecIttv9VkZ9fUsfmHv1rdgZfW+8R0Q69noqatL3/L+aksfji0C1CmSx/9u8/VHgY6tm/7X6cUr6j59pmiCBdv6HQtJ+7T0c5L1pXlE68o8lYmMeRtkzaH8pd+DmH9LwLY6jpXQdnxKpCdiSk+knqBVesf8p5t43VOL7wolOWL+npTEf6ht/PCBMibo8eF72byFOHrS02OvOTvcUTf3dG97T9+roeT6v44MZYrmXd1pjbPzmx7tv+8du3s492Dt4zVPLP8AH9Ga+6S/h62ihNH7r9xoibpb9x19brWbPm8Ox0Up8sTo5gfl+OGUD739ng5uMqJSkcaYP28cQvlE98ItTZbTm/fdODQp+se8Jadu99c1QBDywJeRdPvfvT+z/3FAJXVe0KtDYzTiVC0/sA2KwCw8hR13tQbzirCH4Uak9XToNnPB00w+tSnhSJOD3Q4tbLS9/awu1xwBQACrKcEWd08vPVH/W57Uxbhvw52yHGoAVaRaoyP//LR9J1yIq+Ki1dZnQYAAqxn1Js7VMTfq35cao6g2ZxUcsBjHmqAlUI4L0+cr/v+/lJOpBMxhMusUAMAAdZz6k38LF7wqpjCHUv45wNN5j775Xvy6sF1w74IJ392Zu1ViYsrz5YSNM7kYFTPFQAIsJYYZP34xIZW+w3Pu6VOGmzvvmI+/GYTFyG2wu8M9Aued2/F9KPqSr90UlZ7AQBjEGD1gpTOwbmcfiGG9O5n/7TBJrjHIk03chUGnTj/XJs+p3BPKNbtXOoSbwBAgPU0Gw8c+otYhIvDMwybxTRgFuE0tASjTz2y8wc8rmfoweqtFOxsbLX/UBJRABBgDR5kdboHQ/GC337akGFsDbiCMFzQyFUYMHB7htQTD4QiXpgz3+eePcUMAARYQ5F7bXpDhr/UmzUVy9pDhFtfdlXO4LuhkYONYf3m6T3tum+fKqZ+vPhjnvB+7caifaH5VgCwerWa/oCPHXy8e83FWz8fwqlyw/5D/6nu7/lXWy/4vRDj/97UccYUDv5/j/59rR62/3jwv/+Pa/7d+l1FK/zhxv3dO/cf7JaKFgCsXhOz++rW6T3vSyF9sLlPSJ3D931uvyIBAAyqmJQDTSld0OwHDDdDPAAgwBp/MZ030b8fABBgjZP2rivXVxHQjoYjuB0bd129TpEAAFZFgDU3u3ZZhu/WPDlnmBAAGNjUJBzkyfniwTNb5cWNf07ZekiRAAAAAAAAAAAAAAAAAAAAAAAAAAAAAAAAAAAAAAAAAAAAAAAAAAAAAAAAAAAAAAAAAAAAAAAAAAAAAAAAAAAAAAAAAAAAAAAAAAAAAAAAAAAAAAAAAAAAAAAAAAAAAAAAAAAAAAAAAAAAAAAAAAAAAAAAAAAAAAAAAAAAAAAAAAAAAAAAAAAAAAAAAAAAAAAAAAAAAAAAAAAAAAAAAAAAAAAAAAAAAAAAAAAAAAAAAAAAAAAAAAAAAAAAAAAAAAAAAAAAAAAAAAAAAAAAAAAAAAAAAAAAAAAAAAAAAAAAAAAAAAAAAAAAAAAAAAAAAAAAAAAAAAAAAAAAAAAAAAAAAAAAAAAAAAAAAAAAAAAAAAAAAAAAAAAAAAAAAAAAAAAAAAAAAAAAAAAAAAAAAAAAAAAAAAAAAAAAAAAAAAAAAAAAAAAAAAAAAAAAAAAAAAAAAAAAAAAAAAAAAAAAAAAAAAAAAAAAAAAAAAAAAAAAAAAAAAAAAAAAAAAAAAAAAAAAAAAAAAAAAAAAAAAAAAAAAAAAAAAAAAAAAAAAAAAAAAAAAAAAAAAAAAAAAAAAAAAAAAAAAAAAAAAAAAAAAAAAAAAAAAAAAAAAAAAAAAAAAAAAAAAAAAAAAAAAAAAAAAAAAAAAAAAAAAAAAAAAAAAAAAAAAAAAAAAAAAAAAAAAAAAAAAAAAAAAAAAAAAAAAAAAAAAAAAAAAAAAAAAAAAAAAAAAAAAAAAAAAAAAAAAAAAAAAAAAAAAAAAAAAAAAABhH/z9hlnUiNO+YqQAAAABJRU5ErkJggg==;" vertex="1" parent="1">
          <mxGeometry x="-330" y="210" width="100" height="100" as="geometry" />
        </mxCell>
        <mxCell id="J7IaDJcgwQDKAqj7KhIV-14" value="SPLIT TUNNEL" style="text;html=1;strokeColor=#2D7600;fillColor=#60a917;align=center;verticalAlign=middle;whiteSpace=wrap;rounded=0;fontColor=#ffffff;fontSize=11;" vertex="1" parent="1">
          <mxGeometry x="-230" y="220" width="100" height="15" as="geometry" />
        </mxCell>
        <mxCell id="J7IaDJcgwQDKAqj7KhIV-5" value="Internet" style="image;aspect=fixed;perimeter=ellipsePerimeter;html=1;align=center;shadow=0;dashed=0;spacingTop=3;image=img/lib/active_directory/internet_cloud.svg;" vertex="1" parent="1">
          <mxGeometry x="-201.2" y="40" width="50" height="31.5" as="geometry" />
        </mxCell>
        <mxCell id="J7IaDJcgwQDKAqj7KhIV-45" value="Client Cert&lt;br&gt;Client Key" style="rounded=0;whiteSpace=wrap;html=1;align=left;" vertex="1" parent="1">
          <mxGeometry x="-310" y="280" width="70" height="30" as="geometry" />
        </mxCell>
      </root>
    </mxGraphModel>
  </diagram>
</mxfile>
